<svg xmlns="http://www.w3.org/2000/svg" viewBox="0 0 24 24" width="24" height="24">
  <defs>
    <linearGradient id="tg" x1="12" y1="0" x2="12" y2="24" gradientUnits="userSpaceOnUse">
      <stop stop-color="#2AABEE"/><stop offset="1" stop-color="#229ED9"/>
    </linearGradient>
  </defs>
  <circle cx="12" cy="12" r="12" fill="url(#tg)"/>
  <path fill="#fff" d="M5.491 11.74c3.5-1.525 5.833-2.53 6.998-3.014 3.333-1.386 4.025-1.627 4.476-1.635.099-.002.321.023.465.14a.51.51 0 0 1 .171.327c.016.094.036.308.02.475-.18 1.898-.962 6.502-1.36 8.627-.168.9-.499 1.201-.82 1.23-.696.065-1.225-.46-1.9-.902-1.056-.693-1.653-1.124-2.678-1.8-1.185-.78-.417-1.21.258-1.91.177-.184 3.247-2.977 3.307-3.23.007-.032.014-.15-.056-.212-.07-.062-.174-.041-.249-.024-.106.024-1.793 1.139-5.061 3.345-.479.329-.913.489-1.302.481-.428-.009-1.252-.242-1.865-.441-.752-.245-1.349-.374-1.297-.789.027-.216.325-.437.893-.663z"/>
</svg>
